<svg xmlns="http://www.w3.org/2000/svg" xmlns:xlink="http://www.w3.org/1999/xlink" width="50" zoomAndPan="magnify" viewBox="0 0 37.5 37.499999" height="50" preserveAspectRatio="xMidYMid meet" version="1.0"><defs><clipPath id="8498031248"><path d="M 0 3.699219 L 36.980469 3.699219 L 36.980469 32.394531 L 0 32.394531 Z M 0 3.699219 " clip-rule="nonzero"/></clipPath><clipPath id="dbaf09d7d5"><path d="M 16 12 L 27 12 L 27 30 L 16 30 Z M 16 12 " clip-rule="nonzero"/></clipPath><clipPath id="eeccd0b4e5"><path d="M 15.476562 13.675781 L 20.121094 11.75 L 27.035156 28.425781 L 22.390625 30.351562 Z M 15.476562 13.675781 " clip-rule="nonzero"/></clipPath><clipPath id="b2d5f21bce"><path d="M 17.796875 12.710938 C 19.082031 12.179688 20.550781 12.789062 21.085938 14.070312 L 26.070312 26.09375 C 26.601562 27.378906 25.992188 28.847656 24.710938 29.382812 C 23.429688 29.914062 21.957031 29.304688 21.425781 28.023438 L 16.4375 16 C 15.90625 14.714844 16.515625 13.246094 17.796875 12.710938 Z M 17.796875 12.710938 " clip-rule="nonzero"/></clipPath><clipPath id="b594472f35"><path d="M 9 12 L 22 12 L 22 30 L 9 30 Z M 9 12 " clip-rule="nonzero"/></clipPath><clipPath id="4c3f8a5fd2"><path d="M 13.609375 30.769531 L 8.828125 28.363281 L 17.347656 11.445312 L 22.125 13.851562 Z M 13.609375 30.769531 " clip-rule="nonzero"/></clipPath><clipPath id="e717c3d370"><path d="M 11.21875 29.566406 C 9.898438 28.902344 9.367188 27.292969 10.03125 25.972656 L 16.132812 13.851562 C 16.800781 12.53125 18.40625 12 19.726562 12.664062 C 21.046875 13.328125 21.578125 14.9375 20.914062 16.257812 L 14.8125 28.378906 C 14.148438 29.699219 12.539062 30.230469 11.21875 29.566406 Z M 11.21875 29.566406 " clip-rule="nonzero"/></clipPath><clipPath id="9159fe1a1c"><path d="M 4 11 L 16 11 L 16 30 L 4 30 Z M 4 11 " clip-rule="nonzero"/></clipPath><clipPath id="3d0e7da68a"><path d="M 3.976562 12.945312 L 10.007812 10.839844 L 16.242188 28.671875 L 10.210938 30.78125 Z M 3.976562 12.945312 " clip-rule="nonzero"/></clipPath><clipPath id="7270cffc58"><path d="M 6.992188 11.894531 C 8.65625 11.3125 10.480469 12.1875 11.0625 13.855469 L 15.183594 25.648438 C 15.765625 27.316406 14.886719 29.136719 13.222656 29.71875 C 11.558594 30.300781 9.734375 29.421875 9.152344 27.757812 L 5.03125 15.960938 C 4.449219 14.296875 5.324219 12.476562 6.992188 11.894531 Z M 6.992188 11.894531 " clip-rule="nonzero"/></clipPath><clipPath id="cf1d91a5b1"><path d="M 21 11 L 32 11 L 32 30 L 21 30 Z M 21 11 " clip-rule="nonzero"/></clipPath><clipPath id="3d7260cb8e"><path d="M 26.230469 30.761719 L 20.246094 28.527344 L 26.859375 10.828125 L 32.84375 13.066406 Z M 26.230469 30.761719 " clip-rule="nonzero"/></clipPath><clipPath id="311aa4ac31"><path d="M 23.238281 29.644531 C 21.585938 29.027344 20.746094 27.1875 21.363281 25.535156 L 25.738281 13.832031 C 26.355469 12.179688 28.195312 11.339844 29.847656 11.957031 C 31.503906 12.574219 32.339844 14.414062 31.722656 16.066406 L 27.347656 27.769531 C 26.730469 29.425781 24.890625 30.261719 23.238281 29.644531 Z M 23.238281 29.644531 " clip-rule="nonzero"/></clipPath></defs><g clip-path="url(#8498031248)"><path fill="#71bbea" d="M 33.175781 3.710938 L 3.828125 3.710938 C 1.722656 3.710938 0 5.433594 0 7.539062 L 0 28.59375 C 0 30.699219 1.722656 32.421875 3.828125 32.421875 L 33.175781 32.421875 C 35.28125 32.421875 37.003906 30.699219 37.003906 28.59375 L 37.003906 7.539062 C 37.003906 5.433594 35.28125 3.710938 33.175781 3.710938 Z M 35.730469 10.855469 C 34.390625 9.578125 32.601562 8.8125 30.753906 8.8125 L 23.988281 8.8125 C 22.394531 8.8125 20.992188 7.921875 20.289062 6.515625 L 19.523438 4.984375 L 33.175781 4.984375 C 34.582031 4.984375 35.730469 6.132812 35.730469 7.539062 Z M 35.730469 10.855469 " fill-opacity="1" fill-rule="nonzero"/></g><g clip-path="url(#dbaf09d7d5)"><g clip-path="url(#eeccd0b4e5)"><g clip-path="url(#b2d5f21bce)"><path fill="#ededed" d="M 15.476562 13.675781 L 20.121094 11.75 L 27.035156 28.425781 L 22.390625 30.351562 Z M 15.476562 13.675781 " fill-opacity="1" fill-rule="nonzero"/></g></g></g><g clip-path="url(#b594472f35)"><g clip-path="url(#4c3f8a5fd2)"><g clip-path="url(#e717c3d370)"><path fill="#ededed" d="M 13.609375 30.769531 L 8.828125 28.363281 L 17.335938 11.464844 L 22.117188 13.871094 Z M 13.609375 30.769531 " fill-opacity="1" fill-rule="nonzero"/></g></g></g><g clip-path="url(#9159fe1a1c)"><g clip-path="url(#3d0e7da68a)"><g clip-path="url(#7270cffc58)"><path fill="#ededed" d="M 3.976562 12.945312 L 10.007812 10.839844 L 16.242188 28.671875 L 10.210938 30.78125 Z M 3.976562 12.945312 " fill-opacity="1" fill-rule="nonzero"/></g></g></g><g clip-path="url(#cf1d91a5b1)"><g clip-path="url(#3d7260cb8e)"><g clip-path="url(#311aa4ac31)"><path fill="#ededed" d="M 26.230469 30.761719 L 20.246094 28.527344 L 26.859375 10.828125 L 32.84375 13.066406 Z M 26.230469 30.761719 " fill-opacity="1" fill-rule="nonzero"/></g></g></g></svg>