<svg xmlns="http://www.w3.org/2000/svg" xmlns:xlink="http://www.w3.org/1999/xlink" width="80" zoomAndPan="magnify" viewBox="0 0 60 60" height="80" preserveAspectRatio="xMidYMid meet" version="1.0"><defs><clipPath id="9f18183224"><path d="M 0 6 L 59.960938 6 L 59.960938 52.519531 L 0 52.519531 Z M 0 6 " clip-rule="nonzero"/></clipPath><clipPath id="905e3ea596"><path d="M 26 20 L 43 20 L 43 48 L 26 48 Z M 26 20 " clip-rule="nonzero"/></clipPath><clipPath id="dc2b2be0ff"><path d="M 25.089844 22.171875 L 32.621094 19.050781 L 43.835938 46.085938 L 36.304688 49.210938 Z M 25.089844 22.171875 " clip-rule="nonzero"/></clipPath><clipPath id="1999657a55"><path d="M 28.855469 20.613281 C 30.9375 19.75 33.320312 20.734375 34.183594 22.816406 L 42.269531 42.308594 C 43.132812 44.390625 42.144531 46.773438 40.066406 47.636719 C 37.984375 48.5 35.597656 47.511719 34.738281 45.433594 L 26.652344 25.9375 C 25.789062 23.859375 26.777344 21.472656 28.855469 20.613281 Z M 28.855469 20.613281 " clip-rule="nonzero"/></clipPath><clipPath id="4bea804863"><path d="M 15 20 L 35 20 L 35 49 L 15 49 Z M 15 20 " clip-rule="nonzero"/></clipPath><clipPath id="85de921af4"><path d="M 22.066406 49.890625 L 14.316406 45.988281 L 28.125 18.554688 L 35.875 22.457031 Z M 22.066406 49.890625 " clip-rule="nonzero"/></clipPath><clipPath id="eb2884d1d4"><path d="M 18.191406 47.9375 C 16.050781 46.859375 15.1875 44.253906 16.265625 42.113281 L 26.160156 22.460938 C 27.238281 20.320312 29.84375 19.457031 31.984375 20.535156 C 34.125 21.613281 34.988281 24.21875 33.910156 26.359375 L 24.015625 46.011719 C 22.941406 48.152344 20.332031 49.015625 18.191406 47.9375 Z M 18.191406 47.9375 " clip-rule="nonzero"/></clipPath><clipPath id="2986daf7ba"><path d="M 7 18 L 25 18 L 25 49 L 7 49 Z M 7 18 " clip-rule="nonzero"/></clipPath><clipPath id="6360e9bd14"><path d="M 6.445312 20.992188 L 16.222656 17.574219 L 26.332031 46.488281 L 16.554688 49.90625 Z M 6.445312 20.992188 " clip-rule="nonzero"/></clipPath><clipPath id="0da51d3e86"><path d="M 11.335938 19.28125 C 14.035156 18.339844 16.988281 19.761719 17.933594 22.464844 L 24.617188 41.585938 C 25.5625 44.285156 24.136719 47.238281 21.4375 48.183594 C 18.738281 49.128906 15.78125 47.703125 14.839844 45.003906 L 8.15625 25.882812 C 7.210938 23.179688 8.636719 20.226562 11.335938 19.28125 Z M 11.335938 19.28125 " clip-rule="nonzero"/></clipPath><clipPath id="a6f1641598"><path d="M 34 19 L 52 19 L 52 49 L 34 49 Z M 34 19 " clip-rule="nonzero"/></clipPath><clipPath id="de29318616"><path d="M 42.527344 49.878906 L 32.824219 46.25 L 43.550781 17.558594 L 53.253906 21.183594 Z M 42.527344 49.878906 " clip-rule="nonzero"/></clipPath><clipPath id="3db95f9b98"><path d="M 37.675781 48.066406 C 34.996094 47.0625 33.636719 44.078125 34.636719 41.398438 L 41.730469 22.425781 C 42.730469 19.746094 45.714844 18.382812 48.394531 19.386719 C 51.074219 20.386719 52.433594 23.371094 51.433594 26.050781 L 44.339844 45.027344 C 43.339844 47.707031 40.355469 49.066406 37.675781 48.066406 Z M 37.675781 48.066406 " clip-rule="nonzero"/></clipPath></defs><g clip-path="url(#9f18183224)"><path fill="#71bbea" d="M 53.792969 6.015625 L 6.207031 6.015625 C 2.792969 6.015625 0 8.808594 0 12.222656 L 0 46.359375 C 0 49.773438 2.792969 52.566406 6.207031 52.566406 L 53.792969 52.566406 C 57.207031 52.566406 60 49.773438 60 46.359375 L 60 12.222656 C 60 8.808594 57.207031 6.015625 53.792969 6.015625 Z M 57.929688 17.601562 C 55.757812 15.53125 52.859375 14.289062 49.859375 14.289062 L 38.894531 14.289062 C 36.308594 14.289062 34.035156 12.84375 32.894531 10.566406 L 31.652344 8.082031 L 53.792969 8.082031 C 56.066406 8.082031 57.929688 9.945312 57.929688 12.222656 Z M 57.929688 17.601562 " fill-opacity="1" fill-rule="nonzero"/></g><g clip-path="url(#905e3ea596)"><g clip-path="url(#dc2b2be0ff)"><g clip-path="url(#1999657a55)"><path fill="#ededed" d="M 25.089844 22.171875 L 32.621094 19.050781 L 43.835938 46.085938 L 36.304688 49.210938 Z M 25.089844 22.171875 " fill-opacity="1" fill-rule="nonzero"/></g></g></g><g clip-path="url(#4bea804863)"><g clip-path="url(#85de921af4)"><g clip-path="url(#eb2884d1d4)"><path fill="#ededed" d="M 22.066406 49.890625 L 14.316406 45.988281 L 28.109375 18.585938 L 35.859375 22.488281 Z M 22.066406 49.890625 " fill-opacity="1" fill-rule="nonzero"/></g></g></g><g clip-path="url(#2986daf7ba)"><g clip-path="url(#6360e9bd14)"><g clip-path="url(#0da51d3e86)"><path fill="#ededed" d="M 6.445312 20.992188 L 16.222656 17.574219 L 26.332031 46.488281 L 16.554688 49.90625 Z M 6.445312 20.992188 " fill-opacity="1" fill-rule="nonzero"/></g></g></g><g clip-path="url(#a6f1641598)"><g clip-path="url(#de29318616)"><g clip-path="url(#3db95f9b98)"><path fill="#ededed" d="M 42.527344 49.878906 L 32.824219 46.25 L 43.550781 17.558594 L 53.253906 21.183594 Z M 42.527344 49.878906 " fill-opacity="1" fill-rule="nonzero"/></g></g></g></svg>